<svg width="114" height="16" viewBox="0 0 114 16" fill="none" xmlns="http://www.w3.org/2000/svg">
<g opacity="0.15">
<path d="M90.6088 3.24377C91.3315 3.24377 91.9969 3.41041 92.6049 3.74368C93.2244 4.07696 93.7119 4.55963 94.0676 5.1917C94.4347 5.81228 94.6182 6.54778 94.6182 7.3982C94.6182 8.421 94.3888 9.34613 93.9299 10.1736C93.4825 10.9895 92.8688 11.6331 92.0887 12.1043C91.3086 12.5639 90.4425 12.7938 89.4903 12.7938C88.0793 12.7938 87.0812 12.3341 86.4962 11.4147L85.5842 16.0001H82.8998L85.4121 3.38168H87.9588L87.7696 4.29531C88.5382 3.59429 89.4846 3.24377 90.6088 3.24377ZM89.1806 10.57C89.7083 10.57 90.1786 10.4436 90.5916 10.1908C91.0046 9.92648 91.3258 9.56448 91.5552 9.10479C91.7847 8.6451 91.8994 8.11646 91.8994 7.51887C91.8994 6.8868 91.7101 6.38689 91.3315 6.01914C90.9645 5.65139 90.4482 5.46751 89.7829 5.46751C89.2666 5.46751 88.802 5.59967 88.389 5.86399C87.976 6.11682 87.6548 6.47308 87.4254 6.93277C87.196 7.39245 87.0812 7.92109 87.0812 8.51869C87.0812 9.15076 87.2648 9.65067 87.6319 10.0184C87.999 10.3862 88.5152 10.57 89.1806 10.57Z" fill="#333333"/>
<path d="M99.6158 4.48493C100.017 4.04823 100.499 3.73219 101.061 3.53682C101.635 3.34146 102.306 3.24377 103.075 3.24377L102.593 5.72609C102.272 5.7031 102.065 5.69161 101.973 5.69161C101.159 5.69161 100.505 5.89272 100.012 6.29495C99.5298 6.69718 99.2028 7.3235 99.0308 8.17392L98.136 12.6559H95.4516L97.2928 3.38168H99.8395L99.6158 4.48493Z" fill="#333333"/>
<path d="M107.546 12.7938C106.617 12.7938 105.797 12.6214 105.086 12.2766C104.386 11.9319 103.841 11.4492 103.451 10.8286C103.072 10.1965 102.883 9.46679 102.883 8.63936C102.883 7.61655 103.124 6.69718 103.606 5.88123C104.088 5.06529 104.753 4.42172 105.602 3.95054C106.451 3.47936 107.409 3.24377 108.476 3.24377C109.416 3.24377 110.237 3.41616 110.936 3.76092C111.636 4.10569 112.175 4.59411 112.554 5.22618C112.944 5.84676 113.139 6.57076 113.139 7.3982C113.139 8.421 112.898 9.34038 112.416 10.1563C111.946 10.9723 111.281 11.6158 110.42 12.087C109.571 12.5582 108.613 12.7938 107.546 12.7938ZM107.719 10.57C108.235 10.57 108.699 10.4436 109.112 10.1908C109.525 9.92648 109.847 9.56448 110.076 9.10479C110.305 8.6451 110.42 8.11646 110.42 7.51887C110.42 6.8868 110.237 6.38689 109.869 6.01914C109.502 5.65139 108.986 5.46751 108.321 5.46751C107.793 5.46751 107.323 5.59967 106.91 5.86399C106.497 6.11682 106.176 6.47308 105.946 6.93277C105.717 7.39245 105.602 7.92109 105.602 8.51869C105.602 9.15076 105.786 9.65067 106.153 10.0184C106.531 10.3862 107.053 10.57 107.719 10.57Z" fill="#333333"/>
<path fill-rule="evenodd" clip-rule="evenodd" d="M3.17378 0H49.3199L46.6546 15.9995H5.90168L6.7958 11.517C7.38087 12.4337 8.37893 12.8921 9.78998 12.8921C10.7422 12.8921 11.6083 12.6629 12.3884 12.2045C13.1685 11.7347 13.7822 11.093 14.2296 10.2794C14.6885 9.45431 14.9179 8.53184 14.9179 7.51197C14.9179 6.66398 14.7344 5.93059 14.3673 5.31179C14.0117 4.68153 13.5241 4.20024 12.9046 3.86793C12.2966 3.53561 11.6312 3.36945 10.9085 3.36945C9.78425 3.36945 8.83781 3.71896 8.06919 4.41797L8.25848 3.50696H5.7117L3.21726 15.9995H0L3.17378 0ZM49.339 15.9995L52.0043 0H54.4946L51.8294 15.9995H49.339ZM54.5138 15.9995H79.6532L82.8449 0H57.1791L54.5138 15.9995ZM68.3613 3.50696L66.5201 12.7546H63.9733L64.1454 11.8436C63.3768 12.5426 62.4303 12.8921 61.3061 12.8921C60.5833 12.8921 59.918 12.7259 59.31 12.3936C58.7019 12.0613 58.2144 11.5857 57.8473 10.9669C57.4916 10.3367 57.3138 9.59755 57.3138 8.74957C57.3138 7.72969 57.5375 6.81295 57.9849 5.99935C58.4438 5.17428 59.0633 4.53256 59.8434 4.07419C60.6235 3.60436 61.4839 3.36945 62.4246 3.36945C63.8471 3.36945 64.8509 3.83355 65.436 4.76175L65.6769 3.50696H68.3613ZM62.1321 10.6747C62.6598 10.6747 63.1301 10.5487 63.5431 10.2966C63.9561 10.033 64.2773 9.67204 64.5068 9.21367C64.7362 8.7553 64.8509 8.22817 64.8509 7.63229C64.8509 7.00203 64.6616 6.50355 64.283 6.13686C63.9159 5.77016 63.3997 5.58681 62.7343 5.58681C62.2066 5.58681 61.7363 5.71859 61.3233 5.98216C60.9103 6.23426 60.5891 6.5895 60.3596 7.04787C60.1302 7.50624 60.0155 8.03336 60.0155 8.62924C60.0155 9.2595 60.199 9.75798 60.5661 10.1247C60.9447 10.4914 61.4667 10.6747 62.1321 10.6747ZM75.2691 8.13077L77.8503 12.7546H75.011L73.4967 9.91841L70.8295 12.7546H67.7664L72.3954 8.01044L69.9346 3.50696H72.7223L74.185 6.2228L76.7662 3.50696H79.726L75.2691 8.13077ZM10.8913 10.2966C10.4783 10.5487 10.008 10.6747 9.48024 10.6747C8.81487 10.6747 8.29863 10.4914 7.93153 10.1247C7.56442 9.75798 7.38087 9.2595 7.38087 8.62924C7.38087 8.03336 7.49559 7.50624 7.72503 7.04787C7.95447 6.5895 8.27569 6.23426 8.68868 5.98216C9.10167 5.71859 9.56628 5.58681 10.0825 5.58681C10.7479 5.58681 11.2641 5.77016 11.6312 6.13686C12.0098 6.50355 12.1991 7.00203 12.1991 7.63229C12.1991 8.22817 12.0844 8.7553 11.8549 9.21367C11.6255 9.67204 11.3043 10.033 10.8913 10.2966ZM25.1469 12.7546L26.9881 3.50696H24.3037L24.0628 4.76175C23.4777 3.83355 22.4739 3.36945 21.0514 3.36945C20.1107 3.36945 19.2503 3.60436 18.4702 4.07419C17.6901 4.53256 17.0706 5.17428 16.6117 5.99935C16.1643 6.81295 15.9406 7.72969 15.9406 8.74957C15.9406 9.59755 16.1184 10.3367 16.4741 10.9669C16.8412 11.5857 17.3287 12.0613 17.9367 12.3936C18.5447 12.7259 19.2101 12.8921 19.9329 12.8921C21.0571 12.8921 22.0035 12.5426 22.7722 11.8436L22.6001 12.7546H25.1469ZM22.1699 10.2966C21.7569 10.5487 21.2865 10.6747 20.7588 10.6747C20.0935 10.6747 19.5715 10.4914 19.1929 10.1247C18.8258 9.75798 18.6423 9.2595 18.6423 8.62924C18.6423 8.03336 18.757 7.50624 18.9864 7.04787C19.2159 6.5895 19.5371 6.23426 19.9501 5.98216C20.3631 5.71859 20.8334 5.58681 21.3611 5.58681C22.0265 5.58681 22.5427 5.77016 22.9098 6.13686C23.2884 6.50355 23.4777 7.00203 23.4777 7.63229C23.4777 8.22817 23.363 8.7553 23.1335 9.21367C22.9041 9.67204 22.5829 10.033 22.1699 10.2966ZM31.7965 4.60705C32.198 4.1716 32.6799 3.85647 33.242 3.66166C33.8156 3.46685 34.4867 3.36945 35.2553 3.36945L34.7735 5.84465C34.4523 5.82173 34.2458 5.81027 34.154 5.81027C33.3395 5.81027 32.6856 6.01081 32.1923 6.41188C31.7105 6.81295 31.3835 7.43748 31.2114 8.28547L30.3166 12.7546H27.6322L29.4734 3.50696H32.0202L31.7965 4.60705ZM44.2873 12.7546L46.1286 3.50696H43.4441L43.2032 4.76175C42.6182 3.83355 41.6144 3.36945 40.1918 3.36945C39.2511 3.36945 38.3907 3.60436 37.6106 4.07419C36.8306 4.53256 36.2111 5.17428 35.7522 5.99935C35.3048 6.81295 35.0811 7.72969 35.0811 8.74957C35.0811 9.59755 35.2589 10.3367 35.6145 10.9669C35.9816 11.5857 36.4692 12.0613 37.0772 12.3936C37.6852 12.7259 38.3506 12.8921 39.0733 12.8921C40.1976 12.8921 41.144 12.5426 41.9126 11.8436L41.7406 12.7546H44.2873ZM41.3104 10.2966C40.8974 10.5487 40.427 10.6747 39.8993 10.6747C39.2339 10.6747 38.712 10.4914 38.3334 10.1247C37.9663 9.75798 37.7827 9.2595 37.7827 8.62924C37.7827 8.03336 37.8974 7.50624 38.1269 7.04787C38.3563 6.5895 38.6775 6.23426 39.0905 5.98216C39.5035 5.71859 39.9739 5.58681 40.5016 5.58681C41.167 5.58681 41.6832 5.77016 42.0503 6.13686C42.4289 6.50355 42.6182 7.00203 42.6182 7.63229C42.6182 8.22817 42.5034 8.7553 42.274 9.21367C42.0446 9.67204 41.7233 10.033 41.3104 10.2966Z" fill="#333333"/>
</g>
</svg>
