<svg width="16" height="18" viewBox="0 0 16 18" fill="none" xmlns="http://www.w3.org/2000/svg">
<path d="M8.15787 9.29055C4.12653 9.29055 0.85 12.6093 0.85 16.685C0.85 16.94 1.0549 17.15 1.31122 17.15C1.56755 17.15 1.77244 16.94 1.77244 16.685C1.77244 13.1187 4.6386 10.2205 8.1579 10.2205C11.6772 10.2205 14.5433 13.1187 14.5433 16.685C14.5433 16.94 14.7482 17.15 15.0046 17.15C15.2609 17.15 15.4658 16.94 15.4658 16.685C15.4658 12.6087 12.1892 9.29055 8.15787 9.29055Z" fill="black" stroke="black" stroke-width="0.3"/>
<path d="M8.15794 0.85C6.18622 0.85 4.58462 2.47292 4.58462 4.46472C4.58462 6.45652 6.18625 8.07944 8.15794 8.07944C10.1296 8.07944 11.7313 6.45652 11.7313 4.46472C11.7313 2.47292 10.1297 0.85 8.15794 0.85ZM8.15794 7.1495C6.69825 7.1495 5.50703 5.94649 5.50703 4.46472C5.50703 2.98295 6.69825 1.77994 8.15794 1.77994C9.61764 1.77994 10.8088 2.98295 10.8088 4.46472C10.8088 5.94649 9.61764 7.1495 8.15794 7.1495Z" fill="black" stroke="black" stroke-width="0.3"/>
</svg>
