<svg width="18" height="18" viewBox="0 0 18 18" fill="none" xmlns="http://www.w3.org/2000/svg">
<path d="M17.9508 5.29207C17.9087 4.33565 17.754 3.67813 17.5324 3.10837C17.3039 2.50359 16.9522 1.96214 16.4916 1.51202C16.0414 1.0549 15.4964 0.699693 14.8986 0.474704C14.3256 0.253148 13.6715 0.0984845 12.7151 0.0563161C11.7515 0.0105764 11.4456 0 9.00178 0C6.55794 0 6.25205 0.0105764 5.29206 0.0527448C4.33565 0.0949132 3.67813 0.249714 3.10851 0.471132C2.50359 0.699693 1.96214 1.05133 1.51202 1.51202C1.0549 1.96214 0.69983 2.50717 0.474703 3.10494C0.253148 3.67813 0.0984845 4.33208 0.0563161 5.28849C0.0105764 6.25205 0 6.55794 0 9.00179C0 11.4456 0.0105764 11.7515 0.0527448 12.7115C0.0949132 13.6679 0.249714 14.3254 0.47127 14.8952C0.69983 15.5 1.0549 16.0414 1.51202 16.4916C1.96214 16.9487 2.50716 17.3039 3.10494 17.5289C3.67813 17.7504 4.33208 17.9051 5.28863 17.9473C6.24848 17.9896 6.55451 18 8.99835 18C11.4422 18 11.7481 17.9896 12.7081 17.9473C13.6645 17.9051 14.322 17.7504 14.8916 17.5289C16.1013 17.0612 17.0577 16.1048 17.5254 14.8952C17.7468 14.322 17.9016 13.6679 17.9438 12.7115C17.986 11.7515 17.9966 11.4456 17.9966 9.00179C17.9966 6.55794 17.993 6.25205 17.9508 5.29207ZM16.3299 12.6412C16.2911 13.5203 16.1435 13.995 16.0204 14.3114C15.718 15.0956 15.0956 15.718 14.3114 16.0204C13.995 16.1435 13.5168 16.2911 12.6412 16.3297C11.6918 16.3721 11.407 16.3825 9.00536 16.3825C6.60368 16.3825 6.31537 16.3721 5.3694 16.3297C4.49032 16.2911 4.01561 16.1435 3.69914 16.0204C3.30891 15.8762 2.95371 15.6476 2.6654 15.3487C2.36651 15.0569 2.13795 14.7052 1.99373 14.315C1.87066 13.9985 1.723 13.5203 1.6844 12.6448C1.64209 11.6953 1.63166 11.4105 1.63166 9.00879C1.63166 6.60711 1.64209 6.3188 1.6844 5.37297C1.723 4.49389 1.87066 4.01918 1.99373 3.70271C2.13795 3.31235 2.36651 2.95728 2.66897 2.66883C2.96072 2.36995 3.31235 2.14139 3.70271 1.9973C4.01918 1.87423 4.49746 1.72657 5.37297 1.68783C6.32237 1.64567 6.60725 1.63509 9.00879 1.63509C11.414 1.63509 11.6988 1.64567 12.6447 1.68783C13.5238 1.72657 13.9985 1.87423 14.315 1.9973C14.7052 2.14139 15.0604 2.36995 15.3487 2.66883C15.6476 2.96072 15.8762 3.31235 16.0204 3.70271C16.1435 4.01918 16.2911 4.49732 16.3299 5.37297C16.372 6.32238 16.3826 6.60711 16.3826 9.00879C16.3826 11.4105 16.372 11.6918 16.3299 12.6412Z" fill="#333333"/>
<path d="M9.0018 4.37769C6.44903 4.37769 4.37784 6.44874 4.37784 9.00165C4.37784 11.5546 6.44903 13.6256 9.0018 13.6256C11.5547 13.6256 13.6258 11.5546 13.6258 9.00165C13.6258 6.44874 11.5547 4.37769 9.0018 4.37769ZM9.0018 12.0011C7.3457 12.0011 6.00235 10.6579 6.00235 9.00165C6.00235 7.34541 7.3457 6.0022 9.0018 6.0022C10.658 6.0022 12.0013 7.34541 12.0013 9.00165C12.0013 10.6579 10.658 12.0011 9.0018 12.0011Z" fill="#333333"/>
<path d="M14.8882 4.19508C14.8882 4.79121 14.4048 5.27457 13.8086 5.27457C13.2125 5.27457 12.7291 4.79121 12.7291 4.19508C12.7291 3.59882 13.2125 3.1156 13.8086 3.1156C14.4048 3.1156 14.8882 3.59882 14.8882 4.19508Z" fill="#333333"/>
</svg>
