<svg width="20" height="14" viewBox="0 0 20 14" fill="none" xmlns="http://www.w3.org/2000/svg">
<path d="M19.1667 7.9545H0.833333C0.373332 7.9545 0 7.52686 0 6.99995C0 6.47304 0.373332 6.04541 0.833333 6.04541H19.1667C19.6267 6.04541 20 6.47304 20 6.99995C20 7.52686 19.6267 7.9545 19.1667 7.9545Z" fill="black"/>
<path d="M19.1667 1.90909H0.833333C0.373332 1.90909 0 1.48145 0 0.954544C0 0.427634 0.373332 0 0.833333 0H19.1667C19.6267 0 20 0.427634 20 0.954544C20 1.48145 19.6267 1.90909 19.1667 1.90909Z" fill="black"/>
<path d="M19.1667 14H0.833333C0.373332 14 0 13.5724 0 13.0455C0 12.5186 0.373332 12.0909 0.833333 12.0909H19.1667C19.6267 12.0909 20 12.5186 20 13.0455C20 13.5724 19.6267 14 19.1667 14Z" fill="black"/>
</svg>
