<svg width="26" height="18" viewBox="0 0 26 18" fill="none" xmlns="http://www.w3.org/2000/svg">
<path d="M25.3419 15.1834C25.0437 16.2848 24.1697 17.153 23.0614 17.4496C21.0366 18 12.9372 18 12.9372 18C12.9372 18 4.83815 18 2.81334 17.4704C1.72632 17.1742 0.831021 16.2846 0.532852 15.1834C0 13.1718 0 9 0 9C0 9 0 4.80715 0.532852 2.81657C0.831337 1.71536 1.705 0.847168 2.8135 0.550604C4.85947 0 12.9375 0 12.9375 0C12.9375 0 21.0366 0 23.0614 0.529577C24.1699 0.825985 25.0437 1.69418 25.3422 2.79539C25.8749 4.80715 25.8749 8.97882 25.8749 8.97882C25.8749 8.97882 25.8962 13.1718 25.3419 15.1834ZM10.3585 5.14593V12.8541L17.0936 9L10.3585 5.14593Z" fill="#333333"/>
</svg>
